PathFileType	4	(X/Y/Z)	Patient4_TMGait_0pt4_01_left_22.trc.trc
DataRate	CameraRate	NumFrames	NumMarkers	Units	OrigDataRate	OrigDataStartFrame	OrigNumFrames
80.000000000000	80.000000000000	6	33	mm	80.000000000000	124	       141
Frame#	Time	Sacral			L.Shoulder			Chest			R.Shoulder			Neck			R.ASIS			L.ASIS			R.Thigh.Superior			R.Thigh.Lateral			R.Thigh.Inferior			R.Patella			L.Thigh.Superior			L.Thigh.Lateral			L.Thigh.Inferior			L.Patella			L.Shank.Superior			L.Shank.Lateral			L.Shank.Inferior			R.Shank.Superior			R.Shank.Lateral			R.Shank.Inferior			R.Heel			R.Midfoot.Superior			R.Midfoot.Lateral			R.Toe			L.Heel			L.Midfoot.Lateral			L.Midfoot.Superior			L.Toe			L.Elbow			L.Wrist			R.Elbow			R.Wrist			
		X1	Y1	Z1	X2	Y2	Z2	X3	Y3	Z3	X4	Y4	Z4	X5	Y5	Z5	X6	Y6	Z6	X7	Y7	Z7	X8	Y8	Z8	X9	Y9	Z9	X10	Y10	Z10	X11	Y11	Z11	X12	Y12	Z12	X13	Y13	Z13	X14	Y14	Z14	X15	Y15	Z15	X16	Y16	Z16	X17	Y17	Z17	X18	Y18	Z18	X19	Y19	Z19	X20	Y20	Z20	X21	Y21	Z21	X22	Y22	Z22	X23	Y23	Z23	X24	Y24	Z24	X25	Y25	Z25	X26	Y26	Z26	X27	Y27	Z27	X28	Y28	Z28	X29	Y29	Z29	X30	Y30	Z30	X31	Y31	Z31	X32	Y32	Z32	X33	Y33	Z33	

124	27.947500000000	698.272359110099	994.124191277917	487.191907561765	844.529562803672	1418.019906642245	278.865080571145	973.610843367801	1351.823408623559	421.926054450252	919.474088388995	1432.578146643700	604.455224474124	869.658836967647	1483.208568535879	430.555628142431	936.447577292784	932.440258751091	582.513939965321	897.280896642025	952.584033181435	309.882497186463	929.880880635446	715.279738480058	556.101533140424	824.708393721483	622.763191513749	621.704979230218	881.141547534449	556.205561218524	540.569500499903	858.657012435338	472.059459591365	546.316816658573	978.804875603386	766.006982040558	340.143329397103	925.908452400408	634.455222293799	267.623645312631	1030.917973046393	579.630982958252	328.282453319158	1054.739218993020	515.084271810371	328.928356794940	1041.870195974961	441.613194045422	318.821577285529	979.041065118629	309.910292508143	269.324129491060	1068.185341037386	213.890923916226	326.827824652399	817.160865877027	388.312774403883	555.034710610463	728.758432033322	298.091402344746	616.684919018889	755.292440743338	197.403751528844	555.121722317064	604.169233572738	41.225491466363	519.045744799157	771.024964598274	95.282276006556	568.481097836880	679.416654984172	35.374056049552	601.101224900192	887.768099996214	43.318068229578	611.269379001648	987.014513422990	38.581238316796	367.809506161890	1061.641741021023	40.115088392821	288.411650338560	1133.439930307458	115.618316097005	309.287832900757	1266.714308737063	82.754181736315	285.286343788059	734.290981554285	1076.597779499317	194.068259914850	741.808812111283	817.846843481595	171.627852699227	1052.630363599268	1113.261182189739	702.163624128013	1264.733091303962	1137.987091034803	568.581162031314	
125	27.960000000000	702.202071231184	992.288990512981	484.644966170034	846.401367256053	1416.079639396414	275.946963054970	975.487711255055	1350.996229437384	419.522897075661	920.342112835917	1431.835477459114	601.775610398467	870.776994975249	1481.833106181037	427.604782224936	940.010520515530	930.883719103264	581.223798792758	902.134149239525	950.884504762036	308.490816420975	932.835026677279	713.431849029751	555.032314494610	826.786939169070	621.323296340977	620.104791998753	883.252313653928	554.312544645955	539.244385633702	860.061957714721	469.481373340522	544.914557858331	983.629255668274	764.144229327120	338.813091932493	929.328195320593	632.605634039207	267.157051790740	1034.588858254207	577.836135173224	327.303199400037	1056.838303758142	512.147633584952	328.614839541771	1043.445497261584	438.456904714179	318.574017968532	978.643271342053	307.526094913216	269.538874456980	1066.204864761953	210.456988615189	327.481871130792	817.028410291606	386.428149915908	553.773962277585	727.181084231435	297.752459156626	615.797484439987	752.032254703442	196.531830160970	554.559520407909	599.047658122147	41.344493583484	519.083960388638	766.139740690354	95.207197006374	568.362074667267	674.379301640522	35.367461942848	601.084761560509	882.824983933229	42.951313493276	611.389043145827	981.341187254214	37.939105193567	369.181009416002	1055.390972298131	37.984106955450	289.033841687312	1129.655272014594	110.987011849421	310.332015703781	1261.974419854153	74.069990329017	285.040791801587	737.399593292619	1074.200707627906	191.596374515583	746.520125398278	815.449935877220	169.149092354136	1052.566316601647	1111.809627024142	700.222496592941	1265.070495155001	1132.492616800107	566.179424551826	
126	27.972500000000	706.075121116500	990.565455066395	482.036323283557	848.477294055327	1414.134248394310	272.824794396576	977.468297851093	1350.231885629685	417.011583578769	921.253145074174	1431.291404335298	598.909448262706	872.019803117864	1480.548601785649	424.409078265764	943.505278396235	929.424310921475	579.849800795662	906.984894390959	949.423906346641	307.074937364895	936.138648924073	711.702215388928	553.802093020293	829.476650138292	619.793867085619	618.318066066997	886.155800638118	552.420494087326	537.711942359538	862.416362860008	466.625603107030	543.424091998902	988.544139458951	762.630899838042	337.709243057684	933.352565814646	631.314624456649	266.492046658183	1038.570222194657	576.456918010220	326.506619605511	1059.343118705039	509.674902401771	328.340836241435	1045.428305530878	435.724026317574	318.300999585208	978.830944504031	305.626578349599	269.342156696135	1064.456857253168	207.431023250501	328.029680871939	817.540661253409	384.444757524835	552.410095354291	726.062845302837	297.555420489993	614.783698103302	749.062504368007	195.755890130812	553.940542275396	593.925754033643	41.849892829008	519.128105500905	761.378199343731	95.184348187348	568.256642017147	669.367998464608	35.569552006918	601.054732655186	877.927377675666	42.486050968713	611.539018361843	975.631599358710	37.541927799933	370.119203346389	1049.295141043093	36.317671334773	289.421223304860	1125.812909243831	106.958165820891	311.368488847101	1257.249118295461	66.297456552461	285.122061223954	741.120915828822	1071.649899965350	188.857314858799	752.009919864724	812.908759543125	166.428374788897	1052.033451584069	1110.376268239479	698.500266540728	1265.064575581746	1126.098620742522	564.122221716695	
127	27.985000000000	709.819352236153	989.037205016462	479.408251715839	850.758092007577	1412.261187851483	269.532270592345	979.549511204105	1349.574521628469	414.407472251976	922.260246289981	1431.017963955875	595.865931051522	873.427294183850	1479.425678831539	420.985025858822	946.864814689892	928.151869453120	578.388317426722	911.724427941791	948.299991291512	305.620915556246	939.772750467502	710.191486046514	552.387772941572	832.830362698194	618.227783100753	616.357130653257	889.937830783704	550.605397930132	535.995526117176	865.858206439774	463.553270508472	541.925852917399	993.467417958367	761.564102858072	336.781215909572	937.866543396932	630.614607588803	265.616560359372	1042.749751355712	575.530056732576	325.840412097058	1062.200405242093	507.758166685735	328.061400193744	1047.767393643974	433.501256602319	317.990725738060	979.583282319007	304.280008934085	268.753643578635	1062.968581248534	204.921532768296	328.452709414453	818.813748594258	382.434543098566	551.003503476883	725.501610499698	297.604864199767	613.664663595651	746.478100976535	195.180304131016	553.294016367392	588.861322701318	42.956451223054	519.171433507276	756.814842622530	95.249576367660	568.181698812852	664.417354258330	36.109840021045	601.005287451674	873.082317693578	41.919528642435	611.718264520642	970.096931851802	37.364032410798	370.660703036310	1043.544455214189	35.139779390579	289.599501571594	1121.980054457425	103.697939426200	312.321495138403	1252.645612189019	59.840413375225	285.435424861050	745.445612082194	1069.036588152130	185.873364582662	758.257857272941	810.312967606094	163.503472929060	1051.006301478451	1109.040817968883	696.999140688378	1264.629102800845	1118.818363189011	562.430721301006	
128	27.997500000000	713.376206923063	987.775345308410	476.786034665728	853.234589325878	1410.540769508215	266.109799591177	981.720220278039	1349.066881710434	411.730557092599	923.399997433003	1431.070161807824	592.664090007673	875.025924571144	1478.528156008205	417.363395440782	950.032691277409	927.151420690115	576.842892872163	916.262780574835	947.581100031700	304.109594442137	943.721320629127	709.001195044885	550.784005109102	836.896631061126	616.689494599681	614.254716544596	894.679188863158	548.953625603039	534.145457439134	870.511870170496	460.357807367341	540.520771539348	998.315508827568	760.991042698708	335.944497040582	942.689004551863	630.469364586210	264.549252068748	1046.977509443975	575.033879051146	325.242092359093	1065.293200098116	506.406886886784	327.748535718582	1050.335619865246	431.801162529993	317.650826023075	980.757974471832	303.487671878074	267.852059353780	1061.663722913379	202.960962327994	328.758471120170	820.976075291213	380.482398461465	549.629966135271	725.616261931300	298.014848729473	612.473762631264	744.396683263518	194.922849079091	552.658265760131	583.946537241141	44.906919406017	519.202917518744	752.543823709150	95.447862110191	568.157738603950	659.580763761497	37.140756522144	600.929929005661	868.292936132942	41.260135351548	611.920761695197	964.824804712734	37.357334392339	370.873071451071	1038.192579402954	34.415056776811	289.609692017260	1118.143076672226	101.259187868736	313.136660348323	1248.175648241620	54.894862715659	285.874348655485	750.352858970014	1066.461417027473	182.668834628919	765.253638263703	807.765369560496	160.413145272897	1049.454889221590	1107.877662024360	695.711396521764	1263.659540737202	1110.672857994506	561.136882496602	
129	28.010000000000	716.705334471133	986.831479425547	474.174049861132	855.890275014858	1409.047863480086	262.599396918463	983.962445680254	1348.746251707254	409.003950804535	924.684389925656	1431.478462269017	589.332136993536	876.825561050010	1477.905827719615	413.586690206790	952.967910148321	926.492567107913	575.224170484655	920.538431672091	947.297701281540	302.521095305614	947.978807764920	708.223269222325	549.009272676666	841.718576236640	615.249901191920	612.062866266054	900.451254990007	547.555151811222	532.236215664766	876.477390224941	457.160713275904	539.317243261279	1003.006126583918	760.891077294629	335.088731039321	947.574045515603	630.774455336571	263.335029506748	1051.069849049980	574.884561527161	324.647215316986	1068.443808296617	505.552485940918	327.394644095936	1052.942153840664	430.570918800957	317.302289321864	982.125480169618	303.186028549082	266.760482729353	1060.401714523593	201.515505835350	328.975666868063	824.162455423622	378.680274019837	548.371461548109	726.544532290021	298.899387422753	611.252979142798	742.956250708772	195.106170478894	552.076069172281	579.312208792852	47.955103075724	519.206984257851	748.677157351952	95.832893726945	568.206772069698	654.933541578105	38.829867292248	600.821001925498	863.558516564202	40.527721745450	612.135459295543	959.811828221500	37.464023882651	370.840896867051	1033.196758482478	34.067255881889	289.500884997169	1114.248208039569	99.595292776347	313.788705989031	1243.793661448868	51.454313722343	286.343337243088	755.808722945243	1064.025637977846	179.267971556858	772.998780384063	805.375104965744	157.194198483686	1047.347212834027	1106.947270747538	694.619480892985	1262.036316253040	1101.690835301067	560.287395488207	
